<svg width="759" height="626" viewBox="0 0 759 626" fill="none" xmlns="http://www.w3.org/2000/svg">
<g clip-path="url(#clip0_757_5751)">
<path d="M883 742.024C670.132 521.424 571.797 442.024 395.528 582.924C195.42 414.924 119.778 471.424 -95 646.624C-202.351 509.324 -243.534 452.324 -293.274 538.224C-415.753 351.524 -483.067 290.424 -585.681 453.024C-596.803 470.609 -611.556 483.636 -628.178 490.551C-644.801 497.466 -662.593 497.977 -679.431 492.024C-833.925 437.124 -982.382 667.024 -1073 742.024H883Z" fill="#5865F2"/>
<path d="M735.077 595.423C732.02 591.923 727.283 590.123 721.629 590.123C716.831 590.22 712.071 591.231 707.494 593.123L704.438 594.423C704.529 591.522 704.27 588.62 703.674 585.823C701.993 577.023 697.561 569.823 690.914 564.923C680.981 557.523 666.999 556.323 653.628 561.623C651.015 562.636 648.455 563.907 645.987 565.423C644.841 560.557 643.252 555.89 641.25 551.523C629.254 525.123 604.346 509.623 585.702 517.023C577.756 520.123 571.797 527.223 568.97 536.823C565.302 549.223 566.906 564.523 573.477 578.923C583.181 600.423 601.824 615.223 618.939 615.323C619.092 616.623 619.245 617.923 619.474 619.123C619.971 621.515 620.658 623.828 621.537 626.023H623.294C622.263 623.712 621.491 621.22 621.002 618.623C620.72 617.178 620.513 615.707 620.391 614.223C620.376 613.976 620.284 613.746 620.139 613.58C620.001 613.414 619.818 613.322 619.627 613.323H619.092C602.436 613.323 584.251 598.823 574.776 577.923C568.511 564.023 566.907 549.323 570.345 537.523C573.019 528.523 578.673 521.923 586.161 518.923C604.116 511.823 628.261 526.923 639.951 552.523C642.014 557.108 643.634 562.013 644.764 567.123C644.856 567.39 645.017 567.603 645.223 567.723C645.422 567.824 645.636 567.824 645.834 567.723C648.493 566.031 651.251 564.627 654.086 563.523C667.075 558.423 680.523 559.523 690.15 566.623C696.415 571.323 700.617 578.123 702.222 586.323C702.848 589.418 703.055 592.634 702.833 595.823C702.841 596.164 702.948 596.487 703.139 596.723C703.246 596.838 703.376 596.908 703.506 596.926C703.643 596.944 703.781 596.908 703.903 596.823L707.952 595.023C719.108 590.623 729.117 591.323 734.083 596.923C736.758 599.823 737.827 603.923 737.292 608.723C736.758 613.523 734.236 620.323 730.339 626.023H732.326C735.917 620.423 738.286 614.523 738.821 609.023C739.355 603.523 738.133 598.723 735.077 595.423Z" fill="#808AFF"/>
<path d="M777.635 212.5C777.528 203.818 775.121 195.454 770.827 188.835C766.533 182.216 760.619 177.753 754.087 176.207C747.562 174.661 740.823 176.128 735.031 180.358C729.239 184.587 724.739 191.318 722.317 199.4C720.185 198.794 718.008 198.492 715.822 198.5C711.437 198.482 707.105 199.728 703.131 202.147C699.158 204.567 695.636 208.101 692.824 212.5H777.635Z" fill="#5865F2"/>
<path d="M581.654 283.501C583.572 283.528 585.474 282.999 587.216 281.952C588.958 280.904 590.502 279.364 591.739 277.442C592.97 275.521 593.864 273.265 594.353 270.837C594.842 268.409 594.918 265.87 594.566 263.401C590.907 237.557 580.913 213.975 566.113 196.215C551.305 178.455 532.487 167.482 512.499 164.953C492.503 162.423 472.431 168.475 455.301 182.194C438.171 195.913 424.914 216.554 417.533 241.001C410.703 239.072 403.734 238.099 396.751 238.101C383.326 238.072 370.039 241.713 357.753 248.79C345.467 255.867 334.442 266.225 325.387 279.201C325.143 279.574 324.983 280.03 324.929 280.517C324.868 281.004 324.921 281.502 325.074 281.953C325.227 282.403 325.472 282.788 325.785 283.062C326.098 283.336 326.465 283.488 326.839 283.501H581.654Z" fill="#5865F2"/>
<path d="M241.647 625.4H240.119C240.73 602.8 237.521 588.1 230.262 580.6C223.003 573.1 210.855 572.6 193.816 579.5C193.61 579.569 193.388 579.533 193.205 579.4C193.014 579.237 192.876 578.987 192.823 578.7C192.349 574.68 191.089 570.889 189.156 567.698C187.23 564.508 184.701 562.028 181.821 560.5C174.486 556.6 165.393 558.8 157.6 566.3C138.651 584.4 140.714 616.8 140.714 617.1C140.714 617.306 140.676 617.509 140.592 617.686C140.515 617.863 140.393 618.006 140.256 618.1C140.118 618.196 139.965 618.228 139.812 618.192C139.659 618.155 139.514 618.053 139.415 617.9C129.559 606.4 122.682 601.9 117.104 603.2C111.527 604.5 106.484 612.3 100.753 625.4H98.9961C105.185 611.2 110.228 602.7 116.799 601.2C123.37 599.7 129.559 604.1 139.109 614.9C139.033 606.9 140.103 580.6 156.683 564.7C164.935 556.8 174.562 554.5 182.355 558.7C185.358 560.233 188.017 562.731 190.088 565.965C192.158 569.198 193.572 573.062 194.198 577.2C211.313 570.5 223.386 571.1 231.179 579.1C238.972 587.1 242.258 602.1 241.647 625.4Z" fill="#808AFF"/>
<path d="M219.87 177.1C217.846 175.385 216.126 173.124 214.82 170.468C213.513 167.813 212.658 164.823 212.306 161.7L211.084 150.9C211.038 150.653 210.931 150.432 210.778 150.27C210.625 150.108 210.434 150.013 210.243 150C210.045 149.996 209.854 150.084 209.693 150.249C209.54 150.413 209.441 150.644 209.403 150.9L208.18 161.7C207.814 164.83 206.942 167.822 205.628 170.477C204.306 173.132 202.572 175.39 200.54 177.1L199.47 178C199.355 178.104 199.264 178.238 199.203 178.394C199.134 178.549 199.096 178.722 199.088 178.9C199.088 179.08 199.126 179.255 199.195 179.412C199.256 179.569 199.355 179.702 199.47 179.8L200.54 180.7C202.58 182.431 204.314 184.707 205.628 187.378C206.942 190.05 207.814 193.057 208.18 196.2L209.403 207C209.441 207.256 209.54 207.487 209.693 207.652C209.854 207.816 210.045 207.904 210.243 207.9C210.434 207.887 210.625 207.792 210.778 207.631C210.931 207.469 211.038 207.248 211.084 207L212.306 196.2C212.658 193.063 213.513 190.059 214.82 187.387C216.119 184.715 217.846 182.436 219.87 180.7L221.016 179.8C221.123 179.697 221.208 179.561 221.261 179.403C221.315 179.245 221.337 179.072 221.322 178.9C221.33 178.729 221.307 178.559 221.253 178.403C221.2 178.247 221.116 178.109 221.016 178L219.87 177.1Z" fill="#3F99F2"/>
<path d="M595.483 410.1C593.84 408.705 592.45 406.868 591.395 404.713C590.341 402.557 589.653 400.133 589.371 397.6L588.301 388.9C588.301 388.688 588.24 388.484 588.125 388.334C588.011 388.184 587.85 388.1 587.69 388.1C587.522 388.099 587.353 388.18 587.231 388.327C587.101 388.475 587.017 388.679 587.002 388.9L586.009 397.6C585.711 400.139 585.008 402.567 583.946 404.722C582.876 406.877 581.47 408.71 579.82 410.1L578.98 410.8C578.896 410.883 578.819 410.988 578.773 411.108C578.72 411.229 578.681 411.362 578.674 411.5C578.674 411.642 578.697 411.781 578.758 411.904C578.811 412.027 578.888 412.129 578.98 412.2L579.82 412.9C581.463 414.299 582.861 416.135 583.931 418.289C584.993 420.442 585.703 422.865 586.009 425.4L587.002 434.1C587.017 434.321 587.101 434.525 587.231 434.673C587.353 434.821 587.522 434.902 587.69 434.9C587.85 434.9 588.011 434.816 588.125 434.666C588.24 434.516 588.301 434.312 588.301 434.1L589.371 425.4C589.661 422.872 590.356 420.451 591.411 418.298C592.465 416.144 593.848 414.305 595.483 412.9L596.324 412.2C596.423 412.139 596.507 412.039 596.56 411.913C596.614 411.788 596.637 411.644 596.629 411.5C596.629 411.358 596.599 411.219 596.545 411.096C596.492 410.973 596.415 410.871 596.324 410.8L595.483 410.1Z" fill="#404EED"/>
<g clip-path="url(#clip1_757_5751)">
<path d="M758.456 631.592H646.109V596.543C672.271 571.635 702.112 588.785 704.088 607.296C733.861 587.968 761.862 603.417 758.456 631.592Z" fill="#404EED"/>
<path d="M646.109 539.104H349.334V631.591H646.109V539.104Z" fill="#5865F2"/>
<path d="M349.334 567.687L646.109 543.799V539.104H349.334V567.687Z" fill="#4B59F2"/>
<path d="M646.11 539.104H643.93V631.591H646.11V539.104Z" fill="#3543DE"/>
<path d="M619.334 539.104H617.154V631.591H619.334V539.104Z" fill="#3543DE"/>
<path d="M592.559 539.104H590.379V631.591H592.559V539.104Z" fill="#3543DE"/>
<path d="M565.784 539.104H563.604V631.591H565.784V539.104Z" fill="#3543DE"/>
<path d="M538.94 539.104H536.76V631.591H538.94V539.104Z" fill="#3543DE"/>
<path d="M512.165 539.104H509.984V631.591H512.165V539.104Z" fill="#3543DE"/>
<path d="M485.391 539.104H483.211V631.591H485.391V539.104Z" fill="#3543DE"/>
<path d="M458.616 539.104H456.436V631.591H458.616V539.104Z" fill="#3543DE"/>
<path d="M431.84 539.104H429.66V631.591H431.84V539.104Z" fill="#3543DE"/>
<path d="M405.065 539.104H402.885V631.591H405.065V539.104Z" fill="#3543DE"/>
<path d="M378.29 539.104H376.109V631.591H378.29V539.104Z" fill="#3543DE"/>
<path d="M351.514 539.104H349.334V631.591H351.514V539.104Z" fill="#3543DE"/>
<path d="M429.865 453.558C427.072 444.302 425.573 439.879 430.614 437.156C435.656 434.434 450.985 436.272 458.139 437.973C465.293 439.674 466.315 441.444 461.614 448.454L429.865 453.558Z" fill="#FFF4B3"/>
<path d="M426.594 536.79C425.504 509.295 426.185 486.429 427.071 474.247C422.506 471.252 420.394 468.938 419.508 467.645C419.324 467.396 419.23 467.092 419.243 466.782C419.256 466.473 419.373 466.177 419.577 465.944C426.798 456.893 432.998 448.998 439.471 445.323C445.943 441.648 454.8 440.695 468.903 454.715C469.038 454.894 469.104 455.116 469.092 455.34C469.08 455.564 468.989 455.777 468.835 455.94C467.715 457.051 466.532 458.096 465.292 459.07C468.153 464.175 472.309 471.933 472.309 471.933H475.579C477.675 471.933 479.686 472.765 481.167 474.245C482.65 475.726 483.483 477.733 483.483 479.827C483.551 486.157 482.052 493.779 479.122 503.579C492.203 514.195 489.001 536.722 489.001 536.722L426.594 536.79Z" fill="#29CC7A"/>
<path d="M479.123 503.578C479.532 502.149 479.941 500.856 480.281 499.495L469.994 505.212C469.994 505.212 453.711 494.255 426.39 487.449C425.913 500.108 425.845 517.258 426.595 536.789H489.002C489.002 536.789 492.204 514.195 479.123 503.578Z" fill="#8CD9FF"/>
<path d="M481.712 506.096C480.917 505.189 480.051 504.347 479.123 503.578C479.532 502.149 479.94 500.856 480.281 499.495L469.993 505.212C469.993 505.212 453.71 494.255 426.39 487.449C426.322 489.014 426.254 490.716 426.254 492.417C447.17 501.06 458.411 515.896 459.706 536.789H475.171C477.897 524.812 480.077 514.331 481.712 506.096Z" fill="#BAE8FF"/>
<path d="M434.633 479.488H434.905C435.041 479.352 435.178 479.284 435.246 479.08L441.173 459.956C441.213 459.876 441.235 459.788 441.237 459.698C441.239 459.609 441.222 459.52 441.186 459.438C441.151 459.356 441.097 459.282 441.03 459.223C440.962 459.164 440.883 459.12 440.797 459.095C440.711 459.07 440.62 459.064 440.532 459.077C440.443 459.091 440.359 459.123 440.284 459.173C440.21 459.223 440.147 459.288 440.1 459.365C440.054 459.441 440.024 459.527 440.015 459.616L434.292 478.127C431.819 477.074 429.448 475.797 427.206 474.316H427.07C427.07 474.724 427.002 475.201 427.002 475.609C429.356 477.122 431.841 478.42 434.428 479.488H434.633Z" fill="black"/>
<path d="M459.978 448.727L435.588 450.496C462.84 455.668 463.998 456.417 459.978 448.727Z" fill="black"/>
<path d="M473.467 520.049L470.878 495.889C470.827 495.463 470.615 495.071 470.286 494.793C469.958 494.515 469.536 494.372 469.106 494.392H466.517L465.359 492.146C465.001 491.528 464.433 491.057 463.759 490.82C463.084 490.583 462.346 490.595 461.68 490.853C460.993 491.145 460.435 491.677 460.113 492.35C455.003 503.307 452.483 521.342 452.006 524.745C451.995 524.904 452.035 525.063 452.121 525.197C452.207 525.332 452.333 525.436 452.483 525.493L467.199 530.189C467.28 530.232 467.373 530.25 467.465 530.241C467.557 530.232 467.644 530.196 467.716 530.139C467.789 530.081 467.842 530.003 467.872 529.916C467.9 529.828 467.903 529.734 467.88 529.645L467.335 522.771L472.785 521.07C473.001 521.007 473.187 520.87 473.312 520.683C473.437 520.497 473.491 520.272 473.467 520.049Z" fill="#EB459F"/>
<path d="M460.864 500.789L458.615 524.268" stroke="#D11583" stroke-width="2" stroke-miterlimit="10" stroke-linecap="round"/>
<path d="M453.883 466.428C454.824 466.048 454.994 464.27 454.261 462.458C453.528 460.646 452.171 459.485 451.229 459.865C450.286 460.245 450.117 462.022 450.85 463.835C451.583 465.647 452.941 466.808 453.883 466.428Z" fill="black"/>
<path d="M460.906 470.191C462.121 467.899 461.974 465.442 460.577 464.704C459.18 463.965 457.063 465.224 455.848 467.516C454.633 469.808 454.781 472.265 456.177 473.004C457.574 473.742 459.691 472.483 460.906 470.191Z" stroke="white" stroke-width="2" stroke-miterlimit="10"/>
<path d="M470.939 470.204C472.154 467.913 472.006 465.456 470.61 464.717C469.213 463.979 467.096 465.238 465.881 467.53C464.667 469.822 464.814 472.279 466.211 473.017C467.607 473.756 469.724 472.497 470.939 470.204Z" stroke="white" stroke-width="2" stroke-miterlimit="10"/>
<path d="M464.047 466.099C464.676 465.846 464.614 464.228 463.908 462.485C463.204 460.743 462.123 459.536 461.495 459.79C460.868 460.043 460.93 461.66 461.634 463.403C462.339 465.146 463.42 466.353 464.047 466.099Z" fill="black"/>
<path d="M470.538 483.911C465.277 483.928 460.173 482.125 456.094 478.807C451.87 475.336 453.573 474.928 456.23 474.86C458.887 474.792 471.628 475.268 475.307 475.813C478.986 476.357 479.667 483.639 470.538 483.911Z" fill="#912869"/>
<path d="M470.538 483.911C465.277 483.928 460.173 482.125 456.094 478.807C451.87 475.336 453.573 474.928 456.23 474.86C458.887 474.792 471.628 475.268 475.307 475.813C478.986 476.357 479.667 483.639 470.538 483.911Z" fill="#611B46"/>
<path d="M470.265 491.533L469.992 489.014C471.917 488.861 473.792 488.329 475.511 487.449" stroke="black" stroke-width="2" stroke-linecap="round" stroke-linejoin="round"/>
<path d="M473.059 483.571C469.38 480.032 464.407 477.378 455.209 477.991C463.112 485.272 471.356 484.047 473.059 483.571Z" fill="#EB459F"/>
<path d="M461.34 467.781H465.496" stroke="white" stroke-width="2" stroke-miterlimit="10"/>
<path d="M455.073 468.598L437.495 461.453C437.126 461.31 436.729 461.259 436.336 461.302C435.943 461.346 435.567 461.485 435.239 461.705C434.911 461.926 434.641 462.222 434.453 462.569C434.264 462.916 434.163 463.304 434.157 463.698C434.148 464.163 434.281 464.619 434.536 465.008C434.791 465.396 435.157 465.699 435.587 465.876L436.746 466.421" stroke="white" stroke-width="2" stroke-miterlimit="10" stroke-linecap="round"/>
<path d="M451.393 459.683C452.775 459.719 454.155 459.535 455.48 459.139" stroke="black" stroke-width="2" stroke-miterlimit="10" stroke-linecap="round"/>
<path d="M461.613 459.683C462.485 459.706 463.349 459.519 464.134 459.139" stroke="black" stroke-width="2" stroke-miterlimit="10" stroke-linecap="round"/>
<path d="M432.182 451.176C456.504 450.835 464.748 448.113 471.697 445.595C478.646 443.077 477.965 441.103 472.651 441.307C467.337 441.512 449.146 448.453 432.182 451.176Z" fill="#FFF4B3"/>
<path d="M426.186 494.596L426.05 501.266L429.388 499.973C429.388 499.973 447.17 492.555 451.394 491.534C455.618 490.513 459.638 492.486 465.702 494.8C471.765 497.114 470.198 499.224 468.29 501.266C466.383 503.307 466.451 503.171 456.436 503.171C437.291 516.986 431.432 525.085 423.597 525.085C418.896 525.085 414.876 522.975 411.879 513.72C408.881 504.464 414.468 500.245 426.186 494.596Z" fill="#29CC7A"/>
<path d="M492.885 502.218L482.666 489.9L465.225 507.255L477.556 517.531C477.42 518.688 477.556 519.573 478.169 520.185C480.009 522.023 485.391 519.641 490.228 514.877C495.066 510.113 497.382 504.668 495.542 502.831C494.929 502.218 494.044 502.082 492.885 502.218Z" fill="white"/>
<path d="M476.236 500.91C481.026 496.125 483.873 491.213 482.596 489.938C481.319 488.662 476.401 491.506 471.612 496.29C466.823 501.074 463.976 505.986 465.252 507.262C466.53 508.537 471.447 505.693 476.236 500.91Z" fill="white"/>
<path d="M475.052 499.743C479.389 495.411 482.301 491.296 481.556 490.552C480.811 489.807 476.691 492.716 472.354 497.048C468.018 501.38 465.106 505.495 465.851 506.24C466.596 506.984 470.716 504.075 475.052 499.743Z" fill="#BAE8FF"/>
<path d="M491.932 497.045C494.861 497.453 496.019 500.107 494.861 503.646C494.73 504.023 494.503 504.36 494.204 504.623C493.904 504.887 493.541 505.069 493.15 505.15C492.759 505.233 492.354 505.213 491.973 505.092C491.593 504.971 491.25 504.755 490.978 504.463C490.304 503.749 489.896 502.826 489.821 501.847C489.747 500.868 490.011 499.894 490.569 499.087L491.932 497.045Z" fill="#29CC7A"/>
<path d="M486.82 495.004C486.684 497.522 485.185 500.04 484.095 501.674C483.801 502.132 483.668 502.676 483.717 503.217C483.767 503.76 483.996 504.27 484.368 504.668L484.913 505.145C485.09 505.326 485.302 505.469 485.536 505.568C485.77 505.666 486.021 505.716 486.275 505.716C486.529 505.716 486.78 505.666 487.014 505.568C487.248 505.469 487.46 505.326 487.638 505.145C489.691 503.273 491.138 500.833 491.794 498.135C492.611 494.46 489.954 491.874 485.321 493.099L486.82 495.004Z" fill="#29CC7A"/>
<path d="M432.18 451.176L440.492 450.496L460.454 446.548L455.481 441.648H431.703L432.18 451.176Z" fill="#FFF4B3"/>
<path d="M472.445 476.29L467.676 476.018C468.221 478.876 469.583 480.373 470.742 479.897C471.9 479.42 472.309 476.902 472.445 476.29Z" fill="white"/>
<path d="M457.729 475.676C458.342 478.942 459.568 480.644 460.726 480.099C461.884 479.555 462.157 476.833 462.361 475.744L457.729 475.676Z" fill="white"/>
<path d="M657.078 539.104H342.93" stroke="#2835BD" stroke-width="8" stroke-linecap="round" stroke-linejoin="round"/>
<path d="M465.633 505.893C465.684 506.033 465.779 506.153 465.905 506.233C465.974 506.233 465.974 506.233 465.974 506.301C465.974 506.369 470.879 503.919 475.103 499.699V499.563L472.446 496.977L470.266 494.731L467.404 494.868L461.818 492.758L461.613 493.234C463.998 494.051 464.475 502.626 465.633 505.893Z" fill="#EB459F"/>
<path d="M466.518 494.459C467.668 496.784 468.691 499.169 469.583 501.605C469.63 501.714 469.705 501.81 469.801 501.882C469.897 501.953 470.009 501.999 470.128 502.013H470.333C470.476 501.953 470.594 501.847 470.669 501.711C470.744 501.574 470.769 501.417 470.742 501.265C470.674 501.06 469.175 497.113 467.812 494.459H466.518Z" fill="#D11583"/>
<path d="M467.337 522.906H467.2L461.954 524.472C461.858 524.501 461.77 524.553 461.699 524.625C461.627 524.695 461.575 524.783 461.545 524.88C461.526 524.991 461.535 525.105 461.57 525.212C461.606 525.319 461.667 525.415 461.75 525.492L466.383 529.508C466.411 529.573 466.459 529.628 466.52 529.664C466.581 529.701 466.653 529.718 466.723 529.712C466.813 529.715 466.902 529.698 466.984 529.663C467.067 529.627 467.14 529.574 467.2 529.508C467.255 529.446 467.298 529.374 467.325 529.295C467.352 529.216 467.362 529.133 467.356 529.051C467.349 528.968 467.326 528.888 467.288 528.813C467.249 528.74 467.196 528.675 467.132 528.623L463.317 525.288L467.405 524.063L467.337 522.906Z" fill="#D11583"/>
<path d="M425.845 501.061L416.238 505.62" stroke="black" stroke-width="2" stroke-linecap="round" stroke-linejoin="round"/>
<path d="M463.248 443.35C452.747 446.16 442.104 448.409 431.363 450.087" stroke="#FFC619" stroke-width="2" stroke-miterlimit="10" stroke-linecap="round"/>
<path d="M471.763 508.548L479.121 515.285C479.352 515.488 479.643 515.611 479.951 515.635C480.257 515.66 480.564 515.585 480.825 515.422C480.99 515.305 481.127 515.151 481.226 514.975C481.325 514.798 481.383 514.602 481.396 514.399C481.409 514.197 481.377 513.994 481.301 513.807C481.226 513.618 481.109 513.449 480.961 513.312L473.807 506.438C473.589 506.24 473.315 506.114 473.022 506.078C472.729 506.041 472.432 506.095 472.172 506.234L471.968 506.37C471.785 506.48 471.632 506.632 471.519 506.812C471.406 506.992 471.336 507.196 471.316 507.407C471.297 507.619 471.327 507.833 471.404 508.031C471.482 508.229 471.605 508.406 471.763 508.548Z" fill="#BAE8FF"/>
<path d="M490.227 503.035C491.469 501.388 492.246 499.437 492.475 497.387" stroke="black" stroke-width="2" stroke-linecap="round" stroke-linejoin="round"/>
<path d="M550.651 408.936C551.271 405.994 549.327 403.094 546.308 402.458C543.288 401.822 540.338 403.692 539.717 406.635C539.096 409.577 541.041 412.477 544.06 413.113C547.079 413.748 550.03 411.878 550.651 408.936Z" fill="#2A39D4"/>
<path d="M587.107 459.479C592.081 459.751 598.076 461.792 605.571 470.095C609.795 465.876 611.839 467.033 617.493 471.865C623.148 476.697 635.275 485.884 638.273 488.947C641.271 492.009 643.519 498.61 635.344 503.579C627.168 508.547 612.656 499.427 605.026 494.119C597.395 488.81 587.107 482.617 587.107 482.617V459.479Z" fill="#2331B5"/>
<path d="M615.244 469.959C617.225 473.219 618.891 476.66 620.218 480.235C621.785 485.135 619.809 487.994 615.789 491.328C611.77 494.663 610.135 493.915 608.022 492.213C607.895 492.14 607.745 492.116 607.601 492.144C607.457 492.172 607.328 492.251 607.237 492.367C607.146 492.483 607.099 492.626 607.106 492.773C607.113 492.92 607.172 493.059 607.273 493.166C608.353 494.113 609.722 494.665 611.156 494.731C612.86 494.731 614.563 493.915 616.607 492.213C620.082 489.287 623.352 485.952 621.308 479.827C620.55 477.623 619.616 475.484 618.515 473.43C618.086 472.606 617.508 471.867 616.811 471.252L615.244 469.959Z" fill="#3442D9"/>
<path d="M604.957 490.309C608.636 493.847 617.425 500.109 617.425 500.109" stroke="black" stroke-width="2" stroke-miterlimit="10" stroke-linecap="round"/>
<path d="M568.837 458.61C586.46 453.595 597.078 436.665 592.553 420.796C588.028 404.927 570.072 396.128 552.449 401.143C534.825 406.158 524.207 423.087 528.733 438.956C533.258 454.825 551.213 463.624 568.837 458.61Z" fill="#FF78B9"/>
<path d="M537.439 426.608C537.439 433.141 540.573 438.926 544.457 439.538C548.34 440.151 549.294 436.748 549.43 430.419C549.43 428.785 549.498 427.152 549.635 425.451C550.043 419.598 547.931 416.399 544.457 415.855C540.982 415.31 537.439 420.074 537.439 426.608Z" fill="white"/>
<path d="M566.328 427.016C565.654 426.14 565.255 425.084 565.182 423.981C565.11 422.879 565.366 421.78 565.919 420.823C571.369 411.567 576.343 411.227 579.886 411.431C583.428 411.635 586.154 414.97 583.224 423.409C587.38 427.901 585.677 432.052 579.749 432.596C573.822 433.141 570.62 432.664 566.328 427.016Z" fill="#D11583"/>
<path d="M605.297 517.735C606.115 495.413 598.961 492.555 598.28 485.885C597.598 479.216 596.917 470.233 589.559 460.569C589.559 460.569 590.445 451.518 590.922 445.461C590.934 445.222 590.893 444.984 590.803 444.763C590.713 444.542 590.575 444.343 590.4 444.181C590.224 444.019 590.016 443.897 589.788 443.824C589.56 443.751 589.319 443.729 589.082 443.759C584.308 444.518 579.47 444.815 574.639 444.644C566.327 444.372 555.085 443.555 543.094 455.192L546.978 460.637L546.705 461.113C546.513 461.441 546.395 461.808 546.361 462.187C546.326 462.566 546.376 462.947 546.506 463.305C546.636 463.663 546.844 463.987 547.113 464.255C547.384 464.523 547.71 464.728 548.068 464.856L548.817 465.128C548.817 465.128 537.848 471.73 541.119 486.634C544.389 501.538 540.914 515.966 546.433 520.39C547.549 521.276 548.875 521.86 550.283 522.087C551.691 522.314 553.134 522.174 554.472 521.683L579.748 535.158C588.946 545.298 602.027 556.663 602.027 556.663L591.944 580.687L602.572 607.433C611.633 585.247 623.556 563.469 625.668 553.397C627.78 543.324 620.967 537.403 605.297 517.735Z" fill="#2331B5"/>
<path d="M595.35 593.753C600.392 578.169 606.046 564.081 607.75 559.998C607.894 559.639 607.925 559.246 607.84 558.869C607.755 558.493 607.557 558.15 607.273 557.888C592.557 543.801 589.082 538.969 589.082 538.969" stroke="#3442D9" stroke-width="2" stroke-miterlimit="10"/>
<path d="M556.448 508.139L547.318 501.946C547.318 501.946 552.837 494.392 555.903 489.833L556.652 488.676C556.681 488.607 556.724 488.545 556.779 488.493C556.833 488.442 556.897 488.402 556.968 488.377C557.038 488.351 557.113 488.34 557.188 488.345C557.263 488.35 557.335 488.369 557.402 488.403C557.527 488.462 557.629 488.561 557.69 488.684C557.752 488.808 557.771 488.948 557.742 489.084C555.766 501.13 556.448 508.139 556.448 508.139Z" fill="black"/>
<path d="M590.786 446.617C585.949 448.251 579.544 448.182 571.914 447.978C564.283 447.774 556.585 447.57 543.98 456.417L546.024 459.344C557.675 451.109 563.943 451.313 571.846 451.517C579.749 451.721 585.335 451.789 590.513 450.428C590.581 449.135 590.718 447.842 590.786 446.617Z" fill="#3442D9"/>
<path d="M587.107 516.645C587.259 516.646 587.405 516.591 587.518 516.491C587.631 516.39 587.704 516.251 587.72 516.101C587.856 505.144 583.7 493.983 581.929 489.695C580.07 485.279 578.942 480.59 578.59 475.812C578.045 469.619 576.751 464.787 575.933 462.881L578.25 444.643H577.023L574.707 463.086V463.222C575.456 464.855 576.819 469.687 577.364 475.948C577.724 480.834 578.851 485.634 580.702 490.172C582.542 494.391 586.63 505.348 586.494 516.033C586.494 516.195 586.558 516.351 586.673 516.466C586.789 516.581 586.945 516.645 587.107 516.645Z" fill="black"/>
<path d="M626.487 622.812C626.244 622.453 625.921 622.155 625.542 621.942C625.164 621.73 624.741 621.608 624.307 621.587C624.716 619.137 624.239 617.096 621.037 616.347C617.34 615.551 613.505 615.667 609.863 616.687C603.595 600.626 591.196 558.296 582.543 527.398L554.473 521.682C554.201 529.372 559.243 546.318 562.922 560.882C566.601 575.446 574.708 605.934 576.956 616.959C578.319 623.629 580.295 631.591 580.295 631.591H606.32C613.951 631.591 623.762 628.597 625.669 627.1C627.577 625.602 627.168 624.037 626.487 622.812Z" fill="#2331B5"/>
<path d="M584.722 615.872C576.683 590.555 564.964 556.527 557.811 521.955" stroke="#3442D9" stroke-width="2" stroke-miterlimit="10"/>
<path d="M571.369 517.734C571.505 515.76 568.78 508.342 565.51 502.966C562.239 497.589 560.604 493.778 557.538 495.548C554.472 497.317 547.319 501.945 547.319 501.945C547.319 501.945 552.837 494.391 555.903 489.831C562.512 479.895 560.195 466.216 548.818 465.127C539.484 470.299 538.053 474.723 529.196 490.308C520.339 505.892 515.093 522.498 524.631 529.371C534.17 536.245 543.367 531.481 560.536 523.927C567.962 520.728 571.301 519.776 571.369 517.734Z" fill="#2331B5"/>
<path d="M560.673 522.906C558.766 522.022 557.063 519.163 555.019 513.31C551.612 503.442 550.726 500.448 552.839 498.406L551.544 499.223C551.238 499.407 550.983 499.667 550.805 499.976C550.626 500.285 550.529 500.635 550.522 500.992C550.454 503.578 551.748 507.39 553.929 513.719C555.291 517.666 556.518 520.32 557.812 521.953C558.305 522.645 559.022 523.144 559.842 523.368C560.661 523.592 561.533 523.524 562.309 523.178C561.749 523.233 561.185 523.139 560.673 522.906Z" fill="#3442D9"/>
<path d="M565.51 502.966C562.308 497.589 560.604 493.778 557.539 495.548C554.473 497.317 538.803 507.185 538.803 507.185" stroke="black" stroke-width="2" stroke-miterlimit="10" stroke-linecap="round"/>
<path d="M600.733 463.835C598.629 449.692 597.831 435.386 598.348 421.096C598.364 420.64 598.272 420.187 598.081 419.772C597.889 419.358 597.603 418.994 597.245 418.709C596.888 418.425 596.469 418.228 596.022 418.134C595.574 418.041 595.112 418.053 594.669 418.17L577.705 422.934" stroke="#66BCFF" stroke-width="4" stroke-miterlimit="10" stroke-linecap="round"/>
<path d="M589.832 464.992C591.467 468.122 594.397 473.703 595.01 475.54C595.214 478.399 595.078 483.299 595.078 484.796C595.086 484.935 595.135 485.067 595.22 485.177C595.306 485.286 595.423 485.367 595.555 485.408C600.188 486.089 602.164 486.157 604.071 485.953C605.979 485.749 608.636 484.864 610.475 484.319C610.671 484.243 610.83 484.094 610.918 483.904C611.008 483.714 611.019 483.497 610.952 483.299C609.249 477.718 608.091 473.703 608.091 473.703C607.75 466.761 607.682 461.249 607.682 459.411C607.682 459.231 607.611 459.058 607.483 458.93C607.355 458.802 607.182 458.731 607.001 458.731C600.665 458.322 598.485 458.322 596.168 458.458C593.852 458.594 593.102 459.956 589.9 463.767C589.758 463.936 589.674 464.147 589.662 464.368C589.649 464.589 589.709 464.808 589.832 464.992Z" fill="white"/>
<path d="M610.272 483.775C610.272 483.775 611.021 484.047 610.476 484.319C610.672 484.243 610.831 484.094 610.919 483.904C611.008 483.714 611.02 483.497 610.953 483.299C609.25 477.718 608.092 473.703 608.092 473.703C607.751 466.761 607.683 461.249 607.683 459.411C607.683 459.231 607.611 459.058 607.483 458.93C607.356 458.802 607.183 458.731 607.002 458.731C600.666 458.322 598.485 458.322 596.169 458.458C595.676 458.492 595.193 458.607 594.738 458.799L600.734 471.457L600.325 483.094L610.272 483.775Z" fill="#FFE75C"/>
<path d="M601.074 483.436C602.233 487.587 603.255 490.513 605.844 491.058C608.433 491.602 611.498 488.948 615.45 485.001C619.401 481.054 618.039 477.719 616.336 474.588C614.632 471.458 614.36 467.511 612.248 465.877C609.634 463.957 606.825 462.315 603.868 460.977C601.483 459.956 600.053 459.956 596.442 464.04C592.831 468.123 590.719 470.505 591.332 472.138C591.945 473.772 592.967 475.541 592.967 475.541C591.332 477.175 591.332 478.536 592.013 480.237C592.694 481.938 592.967 483.504 596.442 483.504L601.074 483.436Z" fill="#FF78B9"/>
<path d="M593.104 474.792L602.642 465.809" stroke="black" stroke-width="2" stroke-miterlimit="10" stroke-linecap="round"/>
<path d="M601.823 478.33C599.681 479.68 597.45 480.885 595.146 481.937C595.078 483.23 595.078 484.251 595.078 484.795C595.086 484.934 595.135 485.067 595.221 485.176C595.306 485.285 595.423 485.366 595.555 485.408C600.188 486.088 602.164 486.156 604.071 485.952C605.979 485.748 608.636 484.863 610.476 484.319C610.671 484.243 610.83 484.094 610.918 483.904C611.008 483.714 611.019 483.497 610.952 483.298L610.544 481.937C607.503 481.088 604.575 479.877 601.823 478.33Z" fill="white"/>
<path d="M610.544 481.937C607.503 481.088 604.575 479.877 601.823 478.33L600.46 479.215L600.324 482.958C600.341 483.005 600.369 483.048 600.404 483.082C600.439 483.118 600.482 483.145 600.529 483.162L610.271 483.775C610.271 483.775 611.021 484.047 610.476 484.319C610.679 484.245 610.849 484.101 610.953 483.911C610.953 483.843 611.021 483.706 611.021 483.638C611.032 483.521 611.008 483.403 610.953 483.298L610.544 482.005V481.937Z" fill="#FFE75C"/>
<path d="M559.924 497.249C562.067 494.756 563.647 491.832 564.557 488.674C565.238 486.633 565.987 483.706 566.26 482.617C566.532 481.528 567.827 480.916 569.394 481.256C570.961 481.596 571.642 481.869 571.37 484.659C571.097 487.449 570.484 494.051 570.484 494.051L559.924 497.249Z" fill="#FF78B9"/>
<path d="M591.264 498.884C590.242 496.094 589.765 494.665 588.879 493.508C587.993 492.351 587.176 492.147 583.224 491.943C581.657 491.874 578.66 491.943 576.684 492.011C580.567 490.99 584.723 490.105 585.609 489.833C586.495 489.561 588.266 489.288 587.653 487.587C587.04 485.886 586.495 485.477 585.541 485.477C583.096 485.43 580.653 485.636 578.251 486.09C574.746 486.776 571.304 487.754 567.963 489.016C565.987 489.833 563.467 493.508 559.924 497.251C561.491 502.763 565.238 511.202 569.053 515.218C574.095 513.244 577.093 508.888 578.319 507.255C584.655 506.166 586.835 506.847 590.378 507.323C592.558 507.595 592.762 506.03 592.899 505.281C593.035 504.533 592.149 501.47 591.264 498.884Z" fill="#FF78B9"/>
<path d="M539.485 426.677C539.28 429.535 540.234 431.917 541.597 432.053C542.959 432.189 543.641 431.101 543.709 428.446C543.74 427.324 543.877 426.208 544.117 425.112C544.594 422.73 543.572 421.845 542.414 421.777C541.256 421.709 539.689 423.887 539.485 426.677Z" fill="black"/>
<path d="M562.854 393.057C564.267 392.764 565.74 392.996 566.995 393.71C568.249 394.425 569.199 395.572 569.667 396.936C570.689 400.135 571.574 404.967 566.124 405.851C563.807 406.192 561.423 405.171 557.744 402.313C555.087 400.203 552.225 399.454 546.026 402.653C542.687 400.339 544.322 394.418 553.384 397.413C549.432 392.308 550.59 388.77 553.452 387.749C556.313 386.728 560.605 387.272 562.854 393.057Z" fill="#2A39D4"/>
<path d="M562.852 402.856C560.876 400.406 559.241 397.14 557.879 394.349C556.516 391.559 555.154 388.633 553.655 387.748H553.45C552.915 387.935 552.426 388.237 552.02 388.633L552.496 388.497C553.791 388.633 555.222 391.627 556.789 394.826C558.356 398.024 559.854 401.019 561.898 403.605C562.585 404.417 563.362 405.147 564.215 405.783C564.843 405.907 565.487 405.93 566.122 405.851H566.191C564.936 405.023 563.811 404.014 562.852 402.856Z" fill="black"/>
<path d="M569.733 403.809C569.441 404.237 569.072 404.606 568.643 404.898C568.32 400.38 566.3 396.15 562.988 393.056C563.501 392.931 564.033 392.908 564.555 392.988C567.407 395.942 569.223 399.738 569.733 403.809Z" fill="black"/>
<path d="M576.684 615.463C576.752 616.007 576.888 616.484 576.956 616.96C578.319 623.629 580.295 631.592 580.295 631.592H606.32C613.951 631.592 623.762 628.597 625.669 627.1C627.577 625.603 627.168 624.038 626.487 622.813C626.243 622.453 625.921 622.155 625.542 621.943C625.164 621.73 624.741 621.609 624.307 621.588C624.715 619.138 624.238 617.096 621.036 616.347C617.34 615.551 613.505 615.668 609.863 616.688C608.909 614.17 607.751 611.039 606.525 607.432C595.079 607.228 583.428 606.275 576.684 615.463Z" fill="#45AAF7"/>
<path d="M576.684 615.463C576.752 616.007 576.888 616.484 576.956 616.96C578.319 623.629 580.295 631.592 580.295 631.592H606.32C613.951 631.592 623.762 628.597 625.669 627.1C627.577 625.603 627.168 624.038 626.487 622.813C626.243 622.453 625.921 622.155 625.542 621.943C625.164 621.73 624.741 621.609 624.307 621.588C624.715 619.138 624.238 617.096 621.036 616.347C617.34 615.551 613.505 615.668 609.863 616.688C608.909 614.17 607.751 611.039 606.525 607.432C595.079 607.228 583.428 606.275 576.684 615.463Z" fill="#45AAF7"/>
<path d="M609.862 616.688L608.976 616.892H608.84L601.414 618.389C601.294 618.231 601.224 618.042 601.209 617.845C600.649 615.92 600.351 613.928 600.324 611.924C600.255 607.772 598.075 607.364 594.328 607.432L594.533 606.956C595.036 605.637 595.934 604.504 597.104 603.713C598.274 602.921 599.66 602.51 601.073 602.532H607.273C607.636 602.537 607.993 602.62 608.321 602.776C608.648 602.932 608.939 603.155 609.171 603.434C609.404 603.712 609.574 604.036 609.67 604.385C609.766 604.735 609.785 605.101 609.726 605.459C608.976 608.657 608.772 612.604 609.521 615.531C609.594 615.927 609.708 616.315 609.862 616.688Z" fill="#8CD9FF"/>
<path d="M583.565 620.838C582.64 620.528 581.661 620.41 580.689 620.492C579.716 620.574 578.771 620.854 577.91 621.314C577.969 621.73 578.059 622.139 578.183 622.539C578.916 622.081 579.742 621.788 580.602 621.683C581.461 621.576 582.333 621.66 583.156 621.927C586.971 623.22 589.765 628.188 591.196 631.591H592.49C590.991 628.052 587.993 622.335 583.565 620.838Z" fill="#5865F2"/>
<path d="M626.283 626.487L625.67 627.1C623.762 628.597 613.951 631.591 606.321 631.591H590.787V631.319C608.637 631.047 620.764 623.629 624.92 623.629C626.283 623.629 627.1 625.671 626.283 626.487Z" fill="black"/>
<path d="M609.182 480.984C610.152 482.286 611.552 483.202 613.133 483.57" stroke="black" stroke-width="2" stroke-miterlimit="10" stroke-linecap="round"/>
<path d="M579.272 475.745C578.594 475.748 577.94 475.499 577.435 475.046C576.932 474.593 576.615 473.968 576.547 473.295L576.002 467.102H577.228L580.839 473.022C580.992 473.299 581.07 473.61 581.067 473.926C581.064 474.241 580.98 474.55 580.822 474.824C580.665 475.097 580.439 475.325 580.168 475.487C579.896 475.648 579.588 475.737 579.272 475.745Z" fill="#FFE75C"/>
<path d="M548.818 465.127H555.495" stroke="black" stroke-width="2" stroke-miterlimit="10" stroke-linecap="round"/>
<path d="M586.767 542.439C585.949 539.513 584.723 535.361 584.723 535.361C590.201 531.793 595.416 527.836 600.324 523.52C600.324 523.52 594.67 536.042 592.149 547.679L586.767 542.439Z" fill="black"/>
<path d="M602.027 556.663L608.636 556.391" stroke="black" stroke-width="2" stroke-miterlimit="10" stroke-linecap="round"/>
<path d="M609.863 616.688L608.978 616.892H608.841C605.881 617.59 602.969 618.477 600.121 619.546H599.916C599.796 619.54 599.679 619.497 599.582 619.424C599.485 619.352 599.412 619.252 599.371 619.138C599.339 619.067 599.322 618.99 599.322 618.912C599.322 618.834 599.339 618.757 599.371 618.686C599.403 618.615 599.45 618.552 599.509 618.501C599.568 618.449 599.637 618.412 599.712 618.389L601.211 617.777C603.931 616.832 606.706 616.06 609.523 615.463C609.59 615.883 609.705 616.294 609.863 616.688Z" fill="black"/>
<path d="M591.468 499.429L591.264 498.884L590.991 498.204C585.064 497.591 578.864 497.183 572.801 497.795C572.72 497.804 572.643 497.829 572.571 497.868C572.5 497.907 572.438 497.96 572.387 498.023C572.337 498.086 572.299 498.159 572.277 498.236C572.254 498.314 572.247 498.395 572.256 498.476C572.264 498.556 572.29 498.634 572.328 498.705C572.368 498.776 572.42 498.838 572.484 498.889C572.547 498.94 572.619 498.977 572.697 499C572.775 499.022 572.856 499.029 572.937 499.02C579.069 498.34 585.405 498.816 591.468 499.429Z" fill="black"/>
<path d="M545.207 423.613L541.256 425.519L546.774 428.037L545.207 423.613Z" fill="white"/>
<path d="M626.282 626.488C626.691 625.943 626.214 625.603 624.92 625.603C620.764 625.603 608.636 631.32 590.786 631.592H580.294L579.545 628.598C587.721 628.598 596.646 628.461 604.957 625.807C613.269 623.153 618.788 620.907 624.306 621.588C624.74 621.609 625.163 621.73 625.542 621.943C625.92 622.155 626.243 622.453 626.487 622.813C626.856 623.365 627.036 624.021 626.999 624.684C626.962 625.347 626.711 625.98 626.282 626.488Z" fill="white"/>
<path d="M604.958 604.71H605.775C607.683 604.71 608.977 604.778 609.386 605.254C609.795 605.731 609.591 605.935 609.454 606.616C609.513 606.223 609.604 605.836 609.727 605.459C609.786 605.035 609.676 604.606 609.422 604.262C609.167 603.919 608.787 603.688 608.364 603.621H604.958C601.824 603.621 598.281 603.621 596.441 607.636C596.86 607.625 597.276 607.695 597.668 607.841C599.235 604.642 602.028 604.71 604.958 604.71Z" fill="#3442D9"/>
<path d="M579.273 419.871C578.387 421.3 576.82 422.934 573.346 423.614C578.115 423.07 580.159 425.724 580.159 425.724" stroke="black" stroke-width="2" stroke-linecap="round" stroke-linejoin="round"/>
<path d="M490.5 631.592H445.193V622.065C445.186 619.602 446.139 617.235 447.85 615.463L452.347 611.108C452.923 610.565 453.383 609.911 453.699 609.186C454.016 608.461 454.182 607.679 454.187 606.888V595.999C454.192 593.819 454.935 591.704 456.296 589.999C457.656 588.294 459.555 587.099 461.681 586.608C468.971 584.77 476.533 584.43 482.733 585.655C484.928 586.109 486.898 587.304 488.312 589.039C489.727 590.775 490.5 592.944 490.5 595.183V631.592Z" fill="#45AAF7"/>
<path d="M456.843 613.352H457.115C457.222 613.358 457.329 613.336 457.425 613.288C457.52 613.24 457.601 613.169 457.661 613.08C459.704 609.132 459.704 603.007 459.704 596.474C459.704 589.941 460.318 587.491 464.678 585.857L462.361 586.334C461.764 586.469 461.204 586.734 460.721 587.11C460.239 587.487 459.845 587.965 459.568 588.512C458.614 590.417 458.478 592.935 458.478 596.474C458.478 602.871 458.478 608.86 456.57 612.535C456.525 612.604 456.495 612.683 456.483 612.765C456.472 612.848 456.48 612.931 456.506 613.01C456.533 613.089 456.577 613.161 456.635 613.22C456.694 613.279 456.765 613.325 456.843 613.352Z" fill="#BAE8FF"/>
<path d="M490.5 595.182C490.496 592.934 489.713 590.758 488.285 589.021C486.857 587.284 484.871 586.095 482.665 585.654C479.021 585.028 475.318 584.823 471.627 585.042C462.906 585.654 464.201 591.167 464.201 599.197V606.071C464.205 608.368 463.594 610.624 462.429 612.604C461.135 614.714 460.795 617.3 460.795 622.336V631.592H490.5V595.182Z" fill="#3F99F2"/>
<path d="M479.598 620.635C479.189 608.794 473.807 598.449 468.356 588.581C468.217 588.385 468.135 588.154 468.12 587.915C468.105 587.675 468.157 587.436 468.27 587.223C468.383 587.012 468.553 586.836 468.761 586.714C468.969 586.594 469.206 586.533 469.446 586.539H470.809C471.095 586.555 471.373 586.637 471.621 586.779C471.87 586.921 472.081 587.119 472.24 587.356C477.826 597.633 483.685 608.317 484.094 620.635C484.299 626.828 479.598 631.592 473.33 631.592H468.833C475.101 631.592 479.802 626.828 479.598 620.635Z" fill="#3543DE"/>
<path d="M492.406 620.635C491.998 608.794 486.547 598.449 481.165 588.581C481.026 588.385 480.944 588.154 480.928 587.915C480.913 587.675 480.965 587.436 481.078 587.223C481.191 587.012 481.361 586.836 481.57 586.714C481.777 586.594 482.015 586.533 482.256 586.539H483.618C483.896 586.549 484.167 586.629 484.405 586.772C484.644 586.914 484.842 587.116 484.981 587.356C490.636 597.633 496.427 608.317 496.904 620.635C496.97 622.075 496.737 623.512 496.223 624.857C495.708 626.203 494.921 627.428 493.911 628.456C492.9 629.485 491.689 630.294 490.352 630.833C489.015 631.373 487.581 631.631 486.138 631.592H481.642C483.084 631.631 484.518 631.373 485.855 630.833C487.192 630.294 488.404 629.485 489.414 628.456C490.424 627.428 491.211 626.203 491.726 624.857C492.241 623.512 492.472 622.075 492.406 620.635Z" fill="#3543DE"/>
<path d="M481.301 602.26L495.131 604.642C496.221 607.5 496.766 609.406 496.903 611.243C497.039 613.081 495.267 614.101 492.542 615.19C490.586 616.006 488.788 617.158 487.228 618.593C483.277 622.064 479.938 624.174 474.147 624.174C472.989 624.174 472.171 624.242 471.49 623.493C470.767 622.679 470.339 621.645 470.277 620.558C470.215 619.471 470.523 618.395 471.149 617.504C471.85 616.555 472.701 615.727 473.67 615.054C475.729 613.72 477.468 611.949 478.764 609.867C480.059 607.785 480.879 605.443 481.165 603.008C481.233 602.668 481.233 602.464 481.301 602.26Z" fill="#DE3A93"/>
<path d="M492.543 615.19C493.692 614.76 494.771 614.164 495.745 613.42C497.039 612.195 496.494 611.038 493.701 611.106C490.908 611.174 487.978 613.352 482.119 616.959C476.26 620.566 467.54 624.173 474.148 624.173C480.757 624.173 483.277 622.063 487.229 618.592C488.788 617.158 490.587 616.006 492.543 615.19Z" fill="black"/>
<path d="M479.802 598.108C478.78 598.312 478.916 599.469 479.461 600.626C478.371 602.668 479.053 603.484 480.961 604.301C484.815 605.61 488.887 606.164 492.952 605.934C497.108 605.526 496.835 604.165 496.426 602.804C497.857 601.579 497.653 600.15 496.222 599.537C494.791 598.925 487.092 596.543 479.802 598.108Z" fill="#66BCFF"/>
<path d="M510.53 527.059H492.68V536.784H510.53V527.059Z" fill="white"/>
<path d="M546.843 527.263C547.185 528.646 547.206 530.088 546.907 531.481C546.608 532.874 545.994 534.18 545.115 535.301C544.235 536.422 543.112 537.329 541.83 537.953C540.547 538.576 539.141 538.9 537.714 538.9H518.229L509.099 544.004V543.732C504.943 543.732 502.559 542.371 504.399 527.127C503.581 522.839 499.766 505.961 497.654 493.371C495.746 481.87 500.039 477.65 511.893 470.981C516.935 456.009 530.015 456.893 532.536 465.877C535.057 474.86 543.369 513.039 546.843 527.263Z" fill="#66BCFF"/>
<path d="M510.258 548.837L507.124 549.381C506.971 549.411 506.825 549.474 506.698 549.566C506.571 549.656 506.466 549.774 506.388 549.909C506.31 550.045 506.263 550.195 506.249 550.351C506.235 550.506 506.254 550.663 506.306 550.81L506.988 552.512C497.518 553.056 489.274 553.873 486.004 556.731C482.733 559.59 482.733 563.945 481.234 576.944C479.736 589.942 477.283 597.701 481.234 599.47C485.246 601.191 489.634 601.847 493.975 601.376C498.335 600.967 498.744 598.722 499.63 591.984C500.515 585.247 502.627 570.274 502.627 570.274H537.032C545.549 570.274 550.591 564.694 551.749 559.93C552.567 556.527 551.477 548.497 549.501 538.969H518.229L509.099 544.073L509.78 546.999L510.258 548.837Z" fill="#3442D9"/>
<path d="M538.939 539.104C542.345 556.117 543.027 568.912 530.082 574.765" stroke="#2330BF" stroke-width="2" stroke-miterlimit="10"/>
<path d="M512.165 530.529C512.165 530.529 513.596 538.9 515.571 548.836C517.82 560.27 517.207 559.861 501.605 560.882C487.911 561.767 489.137 561.086 486.276 576.671C485.185 582.796 483.278 593.889 483.823 600.014C483.823 600.014 483.21 603.621 483.346 604.37" stroke="#2467D4" stroke-width="2" stroke-linecap="round" stroke-linejoin="round"/>
<path d="M502.626 570.273C495.064 569.116 491.385 562.311 491.385 562.311" stroke="black" stroke-width="2" stroke-linecap="round" stroke-linejoin="round"/>
<path d="M502.627 570.273C501.08 569.363 499.728 568.153 498.653 566.716C497.577 565.279 496.797 563.643 496.359 561.902" stroke="black" stroke-width="2" stroke-linecap="round" stroke-linejoin="round"/>
<path d="M546.843 527.262C545.072 519.912 541.938 506.301 539.008 493.575L523.747 492.418L511.961 500.721L505.148 509.84L501.674 514.536C502.9 520.389 503.921 525.153 504.33 527.194C502.491 542.439 504.875 543.8 509.031 543.8L521.091 538.696L549.024 536.722C548.343 533.66 547.593 530.461 546.843 527.262Z" fill="#EB459F"/>
<path d="M515.619 519.602C516.479 514.525 516.033 510.215 514.623 509.977C513.213 509.739 511.374 513.662 510.514 518.739C509.654 523.816 510.1 528.125 511.51 528.363C512.919 528.601 514.76 524.678 515.619 519.602Z" fill="black"/>
<path d="M506.715 506.982C507.396 505.757 508.146 504.532 508.896 503.443C516.594 492.35 523.815 489.355 530.765 489.355H539.417C539.547 489.359 539.673 489.393 539.786 489.454C539.9 489.515 539.997 489.603 540.07 489.709C540.143 489.816 540.19 489.937 540.207 490.065C540.224 490.193 540.21 490.323 540.167 490.444L539.008 493.575C525.723 493.575 521.022 493.167 509.985 504.736L505.148 509.84L506.715 506.982Z" fill="#D11583"/>
<path d="M549.024 536.722H526.473C521.431 536.722 515.231 536.45 509.031 543.8L509.781 546.998C513.392 543.528 516.73 542.03 523.952 542.03H550.114L549.024 536.722Z" fill="black"/>
<path d="M509.984 505.144C505.419 505.96 501.808 508.342 499.764 512.562C499.184 513.732 498.346 514.756 497.312 515.556L485.048 524.471C483.67 525.449 482.709 526.907 482.356 528.558C482.003 530.209 482.283 531.932 483.141 533.387C483.739 534.407 484.595 535.253 485.623 535.838C486.652 536.423 487.816 536.728 489 536.721H494.11C504.738 530.8 509.643 526.785 512.164 524.471C514.685 522.157 517.478 518.006 517.001 513.242C516.524 508.478 515.162 504.191 509.984 505.144Z" fill="white"/>
<path d="M513.8 469.96C512.165 467.238 509.985 463.631 509.167 461.929C508.35 460.228 506.374 460.636 509.167 468.259C502.354 465.672 500.924 466.625 500.583 467.578C500.242 468.531 501.741 469.007 504.603 470.641C507.464 472.274 510.53 474.247 510.53 474.247L513.8 469.96Z" fill="#66BCFF"/>
<path d="M520.885 470.163C522.043 468.734 522.453 467.169 521.772 466.624C521.09 466.08 520.34 466.352 519.318 467.713C518.877 468.266 518.4 468.79 517.887 469.278C516.729 470.367 517.002 471.184 517.547 471.66C518.092 472.137 519.727 471.592 520.885 470.163Z" fill="black"/>
<path d="M532.467 465.945C532.467 465.945 524.359 462.27 520.885 460.025C517.41 457.779 515.639 454.444 517.206 453.559C518.773 452.675 521.771 454.784 523.883 457.507C523.815 452.675 524.633 451.654 525.927 451.586C527.222 451.518 527.357 453.423 527.425 456.145C527.493 458.868 527.971 459.957 530.015 461.794C531.238 462.894 532.094 464.343 532.467 465.945Z" fill="#3442D9"/>
<path d="M502.695 488.539C500.788 488.539 499.153 486.905 500.651 484.047C502.15 481.189 507.055 478.33 509.44 477.241C511.824 476.152 512.915 477.241 512.983 478.058C513.051 478.875 512.71 480.1 511.007 482.277C509.303 484.455 506.17 488.539 502.695 488.539Z" fill="white"/>
<path d="M504.193 488.335L503.035 488.539L501.4 482.958L502.354 481.938L504.193 488.335Z" fill="#8CD9FF"/>
<path d="M508.418 485.34L507.465 486.292L505.557 479.419L506.579 478.738L508.418 485.34Z" fill="#8CD9FF"/>
<path d="M512.233 480.577L511.347 481.802L509.984 477.038L511.143 476.834L512.233 480.577Z" fill="#8CD9FF"/>
<path d="M510.734 476.221C511.995 476.822 513.293 477.346 514.618 477.786" stroke="black" stroke-width="2" stroke-linecap="round" stroke-linejoin="round"/>
<path d="M509.031 552.035L516.526 561.155" stroke="black" stroke-width="2" stroke-linecap="round" stroke-linejoin="round"/>
<path d="M514.89 549.313H512.234L511.415 545.57L510.666 542.099C511.356 541.423 512.084 540.787 512.846 540.193L513.732 544.004L514.89 549.313Z" fill="#3442D9"/>
<path d="M526.677 545.705H524.02L523.203 542.03L522.113 536.857H524.77L525.86 542.098L526.677 545.705Z" fill="#3442D9"/>
<path d="M548.411 545.57H545.753L544.936 542.031L543.846 536.723H546.503L547.593 542.031L548.411 545.57Z" fill="#3442D9"/>
<path d="M541.121 502.557C539.817 501.524 538.219 500.929 536.557 500.856C533.014 500.856 531.038 504.327 530.357 507.662C530.247 508.196 529.958 508.677 529.536 509.024C529.114 509.371 528.586 509.562 528.041 509.567H527.564C527.256 509.511 526.963 509.393 526.703 509.22C526.442 509.048 526.219 508.825 526.048 508.564C525.876 508.303 525.758 508.011 525.703 507.704C525.647 507.396 525.655 507.081 525.724 506.777C527.019 500.312 531.243 496.16 536.557 496.16C537.436 496.171 538.285 496.48 538.967 497.037C539.647 497.593 540.119 498.364 540.304 499.223L541.121 502.557Z" fill="white"/>
<path d="M546.843 527.263C546.994 527.871 547.018 528.504 546.916 529.122C546.814 529.741 546.588 530.332 546.25 530.86C545.912 531.388 545.47 531.842 544.952 532.195C544.433 532.548 543.848 532.792 543.233 532.912L541.53 533.048C537.646 533.048 533.626 530.734 530.492 526.718C530.305 526.468 530.168 526.184 530.09 525.881C530.012 525.577 529.995 525.262 530.04 524.952C530.084 524.643 530.189 524.345 530.348 524.076C530.508 523.806 530.719 523.572 530.97 523.384C531.216 523.187 531.501 523.043 531.806 522.96C532.11 522.877 532.429 522.858 532.742 522.902C533.054 522.947 533.354 523.054 533.624 523.22C533.893 523.384 534.126 523.602 534.307 523.86C536.487 526.65 539.145 528.352 541.53 528.352C543.914 528.352 545.345 526.991 546.367 525.221C546.503 525.97 546.707 526.65 546.843 527.263Z" fill="#2331B5"/>
<path d="M542.278 507.799C541.797 507.802 541.329 507.953 540.938 508.234C540.547 508.514 540.254 508.909 540.098 509.364L537.236 517.054C536.986 517.776 536.992 518.562 537.252 519.281C537.513 520 538.012 520.607 538.667 521.002C538.963 521.183 539.297 521.297 539.643 521.332C539.989 521.368 540.338 521.326 540.666 521.208C540.993 521.09 541.289 520.9 541.533 520.652C541.777 520.405 541.962 520.105 542.074 519.777L543.914 514.809C543.437 512.563 542.891 510.249 542.278 507.799Z" fill="#5865F2"/>
<path d="M538.667 521.001C538.012 520.606 537.513 519.999 537.252 519.281C536.992 518.562 536.986 517.776 537.236 517.054L538.054 514.944C538.191 514.576 538.406 514.242 538.684 513.964C538.963 513.687 539.298 513.474 539.667 513.337C540.036 513.202 540.43 513.148 540.822 513.178C541.214 513.209 541.595 513.324 541.937 513.515C542.498 513.842 542.927 514.354 543.151 514.963C543.374 515.571 543.379 516.238 543.164 516.85L542.074 519.776C541.962 520.105 541.777 520.404 541.533 520.652C541.289 520.9 540.993 521.09 540.666 521.207C540.338 521.325 539.989 521.368 539.643 521.332C539.297 521.297 538.963 521.184 538.667 521.001Z" fill="#FFE75C"/>
<path d="M502.558 531.891C500.376 533.406 497.925 534.491 495.336 535.089" stroke="#A3D7FF" stroke-width="2" stroke-linecap="round" stroke-linejoin="round"/>
<path d="M528.926 631.591H517.004C509.714 631.591 502.968 625.739 501.946 618.525C500.924 611.311 505.558 607.5 513.393 605.798L514.755 605.458C515.858 605.227 516.832 604.585 517.478 603.662C518.124 602.739 518.392 601.604 518.23 600.49C518.097 599.406 517.6 598.398 516.821 597.632C516.042 596.865 515.025 596.386 513.938 596.271L511.962 596.067C503.514 595.182 497.927 590.214 496.905 583C495.883 575.786 500.925 570.273 508.01 570.273H519.933C527.223 570.273 533.967 576.126 534.989 583.34L540.031 618.865C540.985 625.875 536.012 631.591 528.926 631.591Z" fill="#ADB4FF"/>
<path d="M542.755 631.591H530.833C523.543 631.591 516.798 625.739 515.776 618.525C515.361 615.87 515.936 613.156 517.393 610.897C518.85 608.638 521.087 606.994 523.679 606.275C524.635 606.018 525.464 605.418 526.004 604.589C526.545 603.76 526.76 602.761 526.608 601.783L526.268 599.197C526.138 598.374 525.762 597.61 525.191 597.003C524.62 596.397 523.88 595.975 523.066 595.794C516.866 594.501 511.62 589.261 510.734 583C509.848 576.739 514.754 570.273 521.839 570.273H533.762C541.052 570.273 547.797 576.126 548.819 583.34L553.86 618.865C554.814 625.875 549.841 631.591 542.755 631.591Z" fill="white"/>
<path d="M539.758 582.25C539.808 582.591 539.783 582.937 539.685 583.267C539.587 583.597 539.42 583.901 539.193 584.159C538.967 584.418 538.687 584.625 538.373 584.765C538.059 584.905 537.718 584.976 537.374 584.973H524.839C524.081 584.952 523.355 584.669 522.783 584.172C522.211 583.676 521.83 582.996 521.704 582.25V581.842C521.642 581.509 521.656 581.166 521.745 580.84C521.835 580.513 521.997 580.211 522.22 579.956C522.442 579.7 522.72 579.498 523.032 579.366C523.344 579.233 523.682 579.172 524.02 579.188H536.624C537.372 579.206 538.091 579.479 538.661 579.962C539.231 580.445 539.619 581.108 539.758 581.842V582.25Z" fill="#66BCFF"/>
<path d="M534.307 587.287C534.368 587.623 534.353 587.969 534.264 588.298C534.175 588.628 534.014 588.934 533.792 589.195C533.571 589.455 533.295 589.663 532.983 589.804C532.672 589.945 532.333 590.015 531.991 590.009H531.651C530.893 589.988 530.167 589.706 529.595 589.209C529.024 588.713 528.642 588.033 528.516 587.287L527.018 576.806C526.967 576.47 526.992 576.126 527.09 575.799C527.188 575.473 527.357 575.172 527.585 574.919C527.812 574.665 528.093 574.465 528.408 574.333C528.722 574.2 529.061 574.139 529.403 574.152H529.743C530.491 574.17 531.209 574.444 531.78 574.926C532.35 575.409 532.737 576.073 532.876 576.806L534.307 587.287Z" fill="#66BCFF"/>
<path d="M535.875 603.077C535.894 603.216 535.884 603.358 535.845 603.493C535.807 603.628 535.741 603.754 535.651 603.863C535.562 603.972 535.451 604.061 535.325 604.125C535.199 604.189 535.062 604.225 534.921 604.233H534.717C534.404 604.209 534.107 604.083 533.873 603.873C533.64 603.664 533.481 603.385 533.422 603.077L532.809 598.721C532.788 598.579 532.799 598.434 532.842 598.297C532.885 598.16 532.958 598.035 533.057 597.93C533.155 597.825 533.275 597.744 533.409 597.693C533.544 597.641 533.687 597.62 533.831 597.632H533.967C534.277 597.628 534.579 597.736 534.817 597.936C535.055 598.136 535.213 598.415 535.261 598.721L535.875 603.077Z" fill="#ADB4FF"/>
<path d="M535.601 616.825C534.854 616.807 534.136 616.533 533.566 616.051C532.995 615.568 532.608 614.904 532.468 614.17V613.762C532.405 613.429 532.42 613.086 532.509 612.76C532.598 612.433 532.76 612.131 532.983 611.876C533.206 611.62 533.484 611.418 533.796 611.286C534.107 611.153 534.445 611.092 534.785 611.108H535.125C535.863 611.122 536.574 611.386 537.143 611.856C537.712 612.325 538.105 612.973 538.259 613.694V614.17C538.31 614.507 538.284 614.851 538.186 615.178C538.089 615.504 537.92 615.804 537.692 616.058C537.464 616.311 537.183 616.511 536.869 616.644C536.555 616.777 536.215 616.838 535.875 616.825H535.601Z" fill="#66BCFF"/>
<path d="M537.372 626.964H537.032C536.281 626.959 535.555 626.69 534.982 626.205C534.41 625.72 534.026 625.049 533.898 624.31V623.697C533.869 623.37 533.909 623.042 534.017 622.732C534.124 622.423 534.297 622.139 534.522 621.902C534.748 621.664 535.021 621.476 535.325 621.351C535.628 621.227 535.954 621.168 536.282 621.179H536.623C537.361 621.193 538.072 621.457 538.641 621.926C539.21 622.396 539.604 623.044 539.757 623.765V624.242C539.819 624.584 539.802 624.935 539.71 625.27C539.617 625.605 539.45 625.914 539.221 626.176C538.992 626.438 538.707 626.644 538.387 626.781C538.066 626.917 537.72 626.979 537.372 626.964Z" fill="#FF78B9"/>
<path d="M535.942 616.825H535.601C534.854 616.807 534.136 616.533 533.566 616.051C532.995 615.568 532.608 614.904 532.468 614.17V613.762C532.405 613.429 532.42 613.086 532.509 612.76C532.598 612.433 532.76 612.131 532.983 611.876C533.206 611.62 533.484 611.418 533.796 611.286C534.107 611.153 534.445 611.092 534.785 611.108H535.125C535.863 611.122 536.574 611.386 537.143 611.856C537.712 612.325 538.105 612.973 538.259 613.694V614.17C538.308 614.502 538.285 614.839 538.191 615.161C538.097 615.482 537.934 615.779 537.713 616.031C537.493 616.284 537.221 616.485 536.915 616.622C536.61 616.759 536.277 616.828 535.942 616.825Z" fill="#5865F2"/>
<path d="M542.414 621.86C541.667 621.842 540.948 621.568 540.378 621.086C539.808 620.603 539.42 619.939 539.281 619.206V618.797C539.218 618.464 539.232 618.121 539.321 617.795C539.411 617.468 539.573 617.166 539.796 616.911C540.018 616.655 540.296 616.453 540.608 616.321C540.92 616.188 541.258 616.127 541.597 616.143H541.938C542.676 616.157 543.387 616.421 543.956 616.891C544.525 617.36 544.918 618.008 545.072 618.729V619.206C545.134 619.538 545.119 619.881 545.03 620.208C544.941 620.535 544.779 620.837 544.556 621.092C544.333 621.347 544.055 621.549 543.743 621.682C543.432 621.815 543.094 621.876 542.755 621.86H542.414Z" fill="#66BCFF"/>
<path d="M542.755 621.86H542.414C541.667 621.842 540.948 621.568 540.378 621.086C539.808 620.603 539.42 619.939 539.281 619.206V618.797C539.218 618.464 539.232 618.121 539.321 617.795C539.411 617.468 539.573 617.166 539.796 616.911C540.018 616.655 540.296 616.453 540.608 616.321C540.92 616.188 541.258 616.127 541.597 616.143H541.938C542.676 616.157 543.387 616.421 543.956 616.891C544.525 617.36 544.918 618.008 545.072 618.729V619.206C545.134 619.538 545.119 619.881 545.03 620.208C544.941 620.535 544.779 620.837 544.556 621.092C544.333 621.347 544.055 621.549 543.743 621.682C543.432 621.815 543.094 621.876 542.755 621.86Z" fill="#5865F2"/>
<path d="M530.56 621.995H530.151C529.402 621.971 528.685 621.686 528.125 621.189C527.565 620.691 527.197 620.013 527.085 619.273V618.66C527.045 618.338 527.077 618.01 527.176 617.701C527.276 617.391 527.441 617.107 527.661 616.867C527.881 616.627 528.151 616.439 528.452 616.314C528.752 616.188 529.076 616.13 529.401 616.142H529.81C530.546 616.176 531.249 616.455 531.805 616.937C532.362 617.419 532.739 618.074 532.876 618.796V619.205C532.948 619.546 532.942 619.899 532.858 620.237C532.774 620.575 532.615 620.89 532.393 621.159C532.17 621.427 531.889 621.642 531.572 621.787C531.255 621.931 530.908 622.002 530.56 621.995Z" fill="#FF78B9"/>
<path d="M419.985 617.981L413.377 614.306C418.564 605.773 424.276 597.567 430.477 589.738C418.282 594.162 405.474 599.674 391.303 599.674H367.593C366.163 596.748 365.754 593.753 365.754 589.262L394.709 578.713L405.678 580.959L406.019 584.089C416.511 581.435 427.343 578.373 435.178 576.535C445.057 574.221 448.396 579.189 442.673 587.492C431.636 603.553 419.985 617.981 419.985 617.981Z" fill="#29CC7A"/>
<path d="M374.133 586.54C374.133 592.324 374.133 596.408 376.926 598.722C377.598 599.331 378.472 599.67 379.379 599.674H382.24C375.291 598.517 375.291 594.774 375.359 586.54V585.995C375.359 585.927 375.291 585.859 375.291 585.791L374.133 586.199V586.54Z" fill="#15AD75"/>
<path d="M419.985 614.918C430.613 600.898 437.426 591.167 440.288 586.607C443.149 582.047 444.103 579.189 429.659 584.089C415.216 588.989 404.247 593.412 401.045 592.187C397.843 590.962 399.001 587.696 399.205 581.911" stroke="#15AD75" stroke-width="2" stroke-linecap="round" stroke-linejoin="round"/>
<path d="M377.471 548.836C372.586 541.326 368.564 533.29 365.48 524.881C365.044 523.482 364.946 522.001 365.195 520.557C365.444 519.114 366.032 517.75 366.911 516.578C371.884 510.589 378.425 507.391 387.145 505.893C388.095 505.788 389.048 506.057 389.802 506.642C400.158 515.693 403.224 525.902 404.995 535.838C405.04 536.411 404.939 536.987 404.7 537.511C404.462 538.034 404.095 538.489 403.633 538.832C398.523 541.963 395.798 542.916 395.798 542.916L396.82 550.47L377.471 548.836Z" fill="#FFE75C"/>
<path d="M387.35 523.451C392.455 523.925 397.528 524.697 402.543 525.765L405.336 526.514C405.439 526.542 405.533 526.597 405.608 526.673C405.683 526.748 405.737 526.843 405.765 526.946C405.792 527.049 405.792 527.158 405.765 527.261C405.738 527.364 405.684 527.458 405.608 527.535L404.995 528.079L406.085 532.298C406.438 533.589 406.348 534.961 405.829 536.194C405.31 537.427 404.393 538.452 403.224 539.104L400.703 540.533L387.35 523.451Z" fill="#FFE75C"/>
<path d="M389.534 528.465C390.83 527.562 390.572 524.956 388.957 522.644C387.343 520.331 384.983 519.189 383.687 520.092C382.391 520.996 382.649 523.602 384.264 525.915C385.878 528.226 388.238 529.368 389.534 528.465Z" fill="#FF78B9"/>
<path d="M397.571 519.028C396.753 518.279 395.868 518.075 395.527 518.415C395.186 518.756 395.391 519.3 396.14 519.845L397.026 520.729C397.639 521.41 398.116 521.274 398.388 520.933C398.661 520.593 398.388 519.708 397.571 519.028Z" fill="black"/>
<path d="M370.523 512.972C369.433 502.015 370.523 498.34 372.839 495.141C375.156 491.942 376.518 492.895 376.109 497.115C375.861 500.423 375.884 503.746 376.177 507.051C378.193 501.895 381.124 497.146 384.83 493.031C385.928 491.702 387.399 490.73 389.054 490.241C390.689 489.833 391.575 490.786 391.098 492.351C390.28 495.005 388.305 499.224 382.99 506.779L383.536 509.773L370.523 512.972Z" fill="#FFE75C"/>
<path d="M402.339 555.302C408.13 557.276 404.042 575.378 404.042 575.378L404.859 575.991C405.528 576.502 406.001 577.227 406.2 578.044C406.398 578.861 406.31 579.722 405.949 580.483L405.677 580.959C401.657 580.959 399 581.299 393.55 585.178C388.099 589.058 384.625 589.262 379.038 589.262H365.753V584.77C360.779 582.796 360.37 580.414 362.278 577.352C363.3 575.583 364.935 573.133 366.161 571.295C366.632 570.593 366.959 569.804 367.123 568.974C367.286 568.145 367.284 567.291 367.115 566.463C366.025 560.61 366.911 557.139 366.911 557.139L381.354 553.26L399.681 552.512L402.339 555.302Z" fill="#2331B5"/>
<path d="M401.912 571.972C403.658 571.51 404.271 568.103 403.281 564.36C402.291 560.617 400.073 557.956 398.327 558.417C396.581 558.878 395.968 562.286 396.958 566.028C397.948 569.771 400.166 572.432 401.912 571.972Z" fill="black"/>
<path d="M410.787 614.714C412.422 613.013 415.965 610.154 415.965 610.154C418.213 610.154 421.62 610.563 423.119 616.756L424.958 624.038C431.976 625.331 432.044 627.304 431.09 629.89V631.047C431.09 631.192 431.033 631.33 430.93 631.433C430.828 631.535 430.689 631.592 430.545 631.592H418.826L410.787 614.714Z" fill="white"/>
<path d="M430.545 631.591C430.689 631.591 430.828 631.534 430.93 631.432C431.033 631.33 431.09 631.191 431.09 631.047V629.89C426.457 629.89 423.051 630.366 421.347 627.372C419.519 623.749 417.905 620.022 416.51 616.211C415.897 614.441 414.602 612.332 412.627 612.944L410.787 614.714L418.826 631.591H430.545Z" fill="#FF78B9"/>
<path d="M425.572 631.593C424.34 631.612 423.123 631.315 422.037 630.731C420.952 630.148 420.035 629.296 419.372 628.258C416.851 624.447 415.284 619.887 414.331 617.097C413.377 614.306 410.311 613.218 410.038 616.756C409.766 620.295 411.605 623.018 414.467 630.095C414.625 630.543 414.921 630.929 415.313 631.199C415.705 631.467 416.171 631.606 416.647 631.593H425.572Z" fill="black"/>
<path d="M402.339 555.302L413.103 558.977C414.193 543.937 418.758 539.649 424.072 527.671C427.887 519.164 429.659 515.285 430.408 513.788C430.517 513.538 430.699 513.327 430.93 513.181C431.16 513.035 431.43 512.963 431.703 512.971H432.111C432.321 512.971 432.527 513.014 432.718 513.097C432.91 513.18 433.082 513.303 433.223 513.457C433.364 513.61 433.471 513.792 433.538 513.99C433.605 514.188 433.629 514.397 433.61 514.605C432.932 518.625 431.86 522.569 430.408 526.378C433.61 524.201 435.041 524.201 436.54 526.446C440.219 524.541 441.581 524.473 442.876 527.331C444.17 530.189 443.966 530.734 443.285 533.048C442.603 535.362 441.581 535.566 440.014 535.566C440.014 551.355 438.993 557.276 431.566 567.892C424.958 577.352 424.617 576.195 415.624 573.337C410.446 571.703 405.336 569.866 401.998 568.573C400.064 567.869 398.438 566.509 397.404 564.731C396.371 562.952 395.995 560.868 396.343 558.841C396.956 555.983 398.864 554.145 402.339 555.302Z" fill="#FFE75C"/>
<path d="M402.338 555.302C402.706 554.868 403.047 554.414 403.36 553.941C403.543 553.688 403.669 553.399 403.73 553.094C403.791 552.789 403.786 552.474 403.715 552.171C403.644 551.868 403.508 551.583 403.318 551.337C403.127 551.09 402.886 550.888 402.611 550.742C384.011 540.534 377.471 539.309 367.251 539.309C360.643 539.309 360.983 541.01 361.597 544.141C356.896 548.496 356.964 549.993 360.234 554.281C363.504 558.568 364.526 560.27 367.592 560.27C370.658 560.27 377.812 560.338 384.079 557.139C390.347 553.941 393.345 552.307 402.338 555.302Z" fill="white"/>
<path d="M402.067 524.471C394.505 523.178 386.806 522.362 386.738 522.362C386.661 522.352 386.583 522.359 386.508 522.382C386.434 522.404 386.366 522.443 386.308 522.495C386.25 522.547 386.203 522.61 386.172 522.681C386.14 522.752 386.124 522.828 386.125 522.906C386.104 523.058 386.142 523.214 386.23 523.34C386.318 523.465 386.451 523.554 386.602 523.587C386.738 523.587 394.777 524.403 402.544 525.764C402.408 525.356 402.272 524.948 402.067 524.471Z" fill="black"/>
<path d="M386.873 522.021C386.469 522.609 386.104 523.223 385.783 523.859" stroke="black" stroke-width="2" stroke-linecap="round" stroke-linejoin="round"/>
<path d="M413.104 558.977L417.6 560.27" stroke="black" stroke-width="2" stroke-linecap="round" stroke-linejoin="round"/>
<path d="M374.338 512.018C374.268 512.275 374.177 512.525 374.065 512.767C374.018 512.876 373.943 512.972 373.848 513.044C373.752 513.115 373.639 513.161 373.52 513.175H373.316C373.241 513.153 373.172 513.115 373.113 513.064C373.054 513.013 373.007 512.949 372.975 512.878C372.942 512.808 372.926 512.73 372.926 512.653C372.926 512.574 372.943 512.497 372.975 512.427C373.043 512.222 374.474 508.003 375.769 505.009C375.823 504.887 375.92 504.791 376.041 504.736C376.041 505.553 376.109 506.302 376.177 507.118C376.245 507.935 374.747 510.793 374.338 512.018Z" fill="#FFC619"/>
<path d="M437.97 555.778C438.215 555.054 438.287 554.284 438.18 553.527C438.074 552.771 437.792 552.05 437.357 551.422C437.055 551.066 436.712 550.746 436.335 550.469C435.488 549.987 434.522 549.751 433.547 549.787C432.572 549.823 431.627 550.13 430.817 550.673C431.225 548.36 431.77 544.14 431.362 540.941C430.953 537.743 429.727 538.151 428.977 538.015C426.797 537.607 423.799 539.921 421.142 544.072C420.665 541.826 419.984 540.737 418.894 540.465C418.596 540.405 418.287 540.447 418.016 540.582C417.744 540.718 417.526 540.94 417.395 541.214L416.373 543.664C417.736 541.622 418.485 541.622 418.689 541.622C418.894 541.622 419.78 542.166 420.256 545.841C420.271 545.963 420.326 546.076 420.412 546.162C420.499 546.248 420.612 546.304 420.733 546.318C420.861 546.342 420.993 546.329 421.114 546.281C421.235 546.233 421.339 546.151 421.415 546.046C424.208 540.941 427.206 538.9 428.773 539.172C430.34 539.444 430.067 540.329 430.135 541.146C430.748 545.297 429.386 551.898 429.386 551.966C429.367 552.084 429.382 552.205 429.431 552.314C429.479 552.422 429.558 552.514 429.658 552.579C429.778 552.635 429.91 552.658 430.042 552.646C430.174 552.634 430.3 552.587 430.408 552.511C431.907 550.946 434.223 550.537 435.654 551.49C437.085 552.443 437.766 555.914 436.199 560.201C436.917 558.781 437.51 557.301 437.97 555.778Z" fill="#FFF4B3"/>
<path d="M426.662 527.944C428.979 526.651 429.796 525.902 431.84 527.944C434.565 526.514 435.11 526.514 436.609 528.692" stroke="#FFC619" stroke-width="2" stroke-linecap="round" stroke-linejoin="round"/>
<path d="M441.241 535.292C441.173 533.387 440.969 530.46 440.901 530.392C440.901 530.315 440.885 530.238 440.854 530.167C440.822 530.096 440.776 530.033 440.717 529.981C440.659 529.93 440.591 529.891 440.517 529.868C440.443 529.845 440.364 529.838 440.287 529.848C440.21 529.847 440.133 529.864 440.062 529.895C439.991 529.926 439.928 529.972 439.876 530.031C439.824 530.089 439.785 530.157 439.763 530.231C439.74 530.305 439.733 530.384 439.742 530.46C439.742 530.528 440.015 533.455 440.015 535.36C440.012 535.397 440.016 535.435 440.028 535.469C440.04 535.505 440.059 535.537 440.083 535.565H441.173L441.241 535.292Z" fill="black"/>
<path d="M441.991 532.979H440.492C440.412 532.979 440.332 532.964 440.258 532.933C440.183 532.902 440.115 532.857 440.059 532.8C440.002 532.743 439.957 532.676 439.925 532.601C439.895 532.527 439.879 532.447 439.879 532.367C439.896 532.216 439.967 532.077 440.081 531.977C440.194 531.877 440.341 531.822 440.492 531.822H441.991C442.142 531.822 442.289 531.877 442.402 531.977C442.516 532.077 442.587 532.216 442.604 532.367C442.604 532.447 442.588 532.527 442.557 532.601C442.526 532.676 442.481 532.743 442.424 532.8C442.368 532.857 442.3 532.902 442.225 532.933C442.151 532.964 442.071 532.979 441.991 532.979Z" fill="black"/>
<path d="M420.734 572.383C422.173 572.348 423.607 572.211 425.027 571.975" stroke="#FFC619" stroke-width="2" stroke-linecap="round" stroke-linejoin="round"/>
<path d="M377.132 587.22C369.365 586.267 365.89 584.838 365.822 584.838H365.754V586.063C366.912 586.471 370.387 587.56 376.995 588.445H377.064C377.215 588.446 377.362 588.39 377.475 588.29C377.588 588.19 377.66 588.051 377.677 587.9C377.686 587.82 377.68 587.738 377.657 587.66C377.635 587.583 377.597 587.51 377.546 587.446C377.496 587.383 377.433 587.331 377.362 587.291C377.291 587.253 377.212 587.228 377.132 587.22Z" fill="black"/>
<path d="M406.018 584.09C404.28 584.643 402.709 585.627 401.453 586.948" stroke="black" stroke-width="2" stroke-linecap="round" stroke-linejoin="round"/>
<path d="M431.09 589.737C433.843 588.52 436.507 587.11 439.061 585.518" stroke="black" stroke-width="2" stroke-linecap="round" stroke-linejoin="round"/>
<path d="M432.453 589.125L436.064 589.261" stroke="black" stroke-width="2" stroke-linecap="round" stroke-linejoin="round"/>
<path d="M362.211 543.799C373.521 542.71 381.56 545.296 392.665 550.264C381.56 549.516 368.479 549.107 368.479 549.107" stroke="#BAE8FF" stroke-width="2" stroke-linecap="round" stroke-linejoin="round"/>
<path d="M359.144 599.674H404.519C405.169 599.674 405.793 599.932 406.253 600.391C406.713 600.851 406.971 601.474 406.971 602.124V631.592H356.691V602.124C356.691 601.474 356.95 600.851 357.41 600.391C357.87 599.932 358.494 599.674 359.144 599.674Z" fill="#8CD9FF"/>
<path d="M402.476 599.674H404.52C405.17 599.674 405.794 599.932 406.254 600.391C406.714 600.851 406.973 601.474 406.973 602.124V631.592H400.023V602.124C400.023 601.802 400.087 601.483 400.21 601.186C400.333 600.889 400.514 600.619 400.742 600.391C400.97 600.164 401.24 599.983 401.538 599.86C401.835 599.737 402.154 599.674 402.476 599.674Z" fill="#45AAF7"/>
<path d="M363.368 622.199H393.346C393.888 622.199 394.408 622.414 394.791 622.797C395.174 623.18 395.389 623.699 395.389 624.241V631.591H361.393V624.241C361.392 623.711 361.598 623.202 361.967 622.821C362.336 622.439 362.838 622.217 363.368 622.199Z" fill="#45AAF7"/>
<path d="M364.73 599.674V631.592" stroke="#5865F2" stroke-width="2" stroke-miterlimit="10"/>
<path d="M391.916 599.674V631.592" stroke="#5865F2" stroke-width="2" stroke-miterlimit="10"/>
<path d="M393.618 602.123H363.027C362.087 602.123 361.324 602.885 361.324 603.824V614.707C361.324 615.646 362.087 616.408 363.027 616.408H393.618C394.559 616.408 395.321 615.646 395.321 614.707V603.824C395.321 602.885 394.559 602.123 393.618 602.123Z" fill="black"/>
<path d="M399.41 604.438C399.318 604.427 399.225 604.437 399.137 604.467C399.049 604.498 398.97 604.547 398.904 604.613C398.839 604.679 398.789 604.758 398.758 604.845C398.728 604.933 398.718 605.027 398.729 605.118C398.729 605.299 398.801 605.472 398.929 605.6C399.056 605.727 399.23 605.799 399.41 605.799H406.973V604.438H399.41Z" fill="#5865F2"/>
<path d="M398.729 608.044C398.718 608.136 398.728 608.229 398.758 608.317C398.789 608.405 398.839 608.483 398.904 608.55C398.97 608.615 399.049 608.665 399.137 608.695C399.225 608.725 399.318 608.735 399.41 608.724H406.973V607.363H399.41C399.23 607.363 399.056 607.435 398.929 607.563C398.801 607.69 398.729 607.863 398.729 608.044Z" fill="#5865F2"/>
<path d="M398.729 611.038C398.729 611.219 398.801 611.392 398.929 611.519C399.056 611.647 399.23 611.719 399.41 611.719H406.973V610.358H399.41C399.318 610.347 399.225 610.357 399.137 610.387C399.049 610.418 398.97 610.467 398.904 610.533C398.839 610.599 398.789 610.678 398.758 610.765C398.728 610.853 398.718 610.946 398.729 611.038Z" fill="#5865F2"/>
<path d="M357.918 605.118C357.902 605.294 357.826 605.458 357.701 605.582C357.577 605.707 357.412 605.783 357.236 605.799H356.691V604.438H357.236C357.417 604.438 357.59 604.509 357.718 604.637C357.846 604.764 357.918 604.938 357.918 605.118Z" fill="#5865F2"/>
<path d="M357.918 608.044C357.918 608.224 357.846 608.398 357.718 608.525C357.59 608.653 357.417 608.724 357.236 608.724H356.691V607.363H357.236C357.412 607.379 357.577 607.455 357.701 607.58C357.826 607.704 357.902 607.868 357.918 608.044Z" fill="#5865F2"/>
<path d="M357.918 611.038C357.902 611.214 357.826 611.378 357.701 611.502C357.577 611.627 357.412 611.704 357.236 611.719H356.691V610.357H357.236C357.417 610.357 357.59 610.429 357.718 610.557C357.846 610.684 357.918 610.858 357.918 611.038Z" fill="#5865F2"/>
<path d="M384.899 603.145H364.936C364.447 603.145 364.051 603.541 364.051 604.029V613.455C364.051 613.944 364.447 614.34 364.936 614.34H384.899C385.388 614.34 385.784 613.944 385.784 613.455V604.029C385.784 603.541 385.388 603.145 384.899 603.145Z" fill="#FFF4B3"/>
<path d="M393.347 614.373H387.896C387.558 614.373 387.283 614.647 387.283 614.986V615.816C387.283 616.154 387.558 616.428 387.896 616.428H393.347C393.685 616.428 393.96 616.154 393.96 615.816V614.986C393.96 614.647 393.685 614.373 393.347 614.373Z" fill="#FF78B9"/>
<path d="M372.089 604.438C372.089 606.098 372.75 607.691 373.925 608.865C375.101 610.039 376.695 610.699 378.357 610.699C380.02 610.699 381.614 610.039 382.789 608.865C383.965 607.691 384.625 606.098 384.625 604.438C384.617 604.003 384.572 603.571 384.489 603.145H372.226C372.109 603.565 372.063 604.002 372.089 604.438Z" fill="#29CC7A"/>
<path d="M365.889 614.373H376.108C375.529 613.559 374.763 612.895 373.874 612.436C372.985 611.978 371.999 611.738 370.998 611.738C369.998 611.738 369.012 611.978 368.123 612.436C367.234 612.895 366.468 613.559 365.889 614.373Z" fill="#29CC7A"/>
</g>
</g>
<defs>
<clipPath id="clip0_757_5751">
<rect width="759" height="626" fill="white"/>
</clipPath>
<clipPath id="clip1_757_5751">
<rect width="419" height="245" fill="white" transform="translate(340 387)"/>
</clipPath>
</defs>
</svg>
